<svg xmlns="http://www.w3.org/2000/svg" viewBox="0 0 32 32" fill="none">
  <!-- Dark background -->
  <rect width="32" height="32" fill="#0f172a" rx="6"/>

  <!-- Two overlapping speech bubbles representing language exchange -->
  <!-- Left bubble (English) -->
  <path d="M8 10C8 8.89543 8.89543 8 10 8H16C17.1046 8 18 8.89543 18 10V14C18 15.1046 17.1046 16 16 16H13L10 18V16C8.89543 16 8 15.1046 8 14V10Z"
        fill="#fb923c" opacity="0.7"/>

  <!-- Right bubble (Spanish) -->
  <path d="M14 16C14 14.8954 14.8954 14 16 14H22C23.1046 14 24 14.8954 24 16V20C24 21.1046 23.1046 22 22 22H19L16 24V22C14.8954 22 14 21.1046 14 20V16Z"
        fill="#fb923c"/>

  <!-- Small connecting element -->
  <circle cx="16" cy="15" r="1.5" fill="#f8fafc"/>
</svg>
